<?xml version="1.0" encoding="UTF-8" standalone="no"?>
<!-- Created with Inkscape (http://www.inkscape.org/) -->

<svg
   width="333.64972mm"
   height="140.43983mm"
   viewBox="0 0 333.64972 140.43983"
   version="1.1"
   id="svg5"
   sodipodi:docname="Logo_naranjito.svg"
   inkscape:version="1.1.2 (0a00cf5339, 2022-02-04)"
   xmlns:inkscape="http://www.inkscape.org/namespaces/inkscape"
   xmlns:sodipodi="http://sodipodi.sourceforge.net/DTD/sodipodi-0.dtd"
   xmlns:xlink="http://www.w3.org/1999/xlink"
   xmlns="http://www.w3.org/2000/svg"
   xmlns:svg="http://www.w3.org/2000/svg">
  <sodipodi:namedview
     id="namedview7"
     pagecolor="#d0d0d0"
     bordercolor="#666666"
     borderopacity="1.0"
     inkscape:pageshadow="2"
     inkscape:pageopacity="1"
     inkscape:pagecheckerboard="0"
     inkscape:document-units="mm"
     showgrid="false"
     fit-margin-top="5"
     fit-margin-bottom="5"
     fit-margin-right="5"
     fit-margin-left="5"
     inkscape:zoom="0.5209506"
     inkscape:cx="568.19207"
     inkscape:cy="106.53601"
     inkscape:window-width="1920"
     inkscape:window-height="1080"
     inkscape:window-x="0"
     inkscape:window-y="360"
     inkscape:window-maximized="1"
     inkscape:current-layer="layer1" />
  <defs
     id="defs2">
    <linearGradient
       inkscape:collect="always"
       id="linearGradient36069">
      <stop
         style="stop-color:#ff7a00;stop-opacity:1"
         offset="0"
         id="stop36063" />
      <stop
         style="stop-color:#ff7e00;stop-opacity:1"
         offset="0.49156851"
         id="stop36065" />
      <stop
         style="stop-color:#ffae1d;stop-opacity:1"
         offset="1"
         id="stop36067" />
    </linearGradient>
    <linearGradient
       inkscape:collect="always"
       id="linearGradient35701">
      <stop
         style="stop-color:#ff7a00;stop-opacity:1"
         offset="0"
         id="stop35695" />
      <stop
         style="stop-color:#ff7e00;stop-opacity:1"
         offset="0.5391019"
         id="stop35697" />
      <stop
         style="stop-color:#ffae1d;stop-opacity:1"
         offset="1"
         id="stop35699" />
    </linearGradient>
    <linearGradient
       inkscape:collect="always"
       id="linearGradient35255">
      <stop
         style="stop-color:#ff7a00;stop-opacity:1"
         offset="0"
         id="stop35249" />
      <stop
         style="stop-color:#ff7e00;stop-opacity:1"
         offset="0.26722196"
         id="stop35251" />
      <stop
         style="stop-color:#ffae1d;stop-opacity:1"
         offset="1"
         id="stop35253" />
    </linearGradient>
    <linearGradient
       inkscape:collect="always"
       id="linearGradient5191">
      <stop
         style="stop-color:#ff7a00;stop-opacity:1"
         offset="0"
         id="stop5187" />
      <stop
         style="stop-color:#ff7e00;stop-opacity:1"
         offset="0.49156851"
         id="stop9351" />
      <stop
         style="stop-color:#ffc91d;stop-opacity:1"
         offset="1"
         id="stop5189" />
    </linearGradient>
    <radialGradient
       inkscape:collect="always"
       xlink:href="#linearGradient36069"
       id="radialGradient6937"
       cx="98.38237"
       cy="110.43372"
       fx="98.38237"
       fy="110.43372"
       r="65.155792"
       gradientTransform="matrix(0.60631852,-0.30401493,0.30972181,0.61770019,8.63009,63.249489)"
       gradientUnits="userSpaceOnUse"
       spreadMethod="pad" />
    <linearGradient
       inkscape:collect="always"
       xlink:href="#linearGradient5191"
       id="linearGradient26141"
       x1="45.333218"
       y1="68.844391"
       x2="100.98779"
       y2="17.392544"
       gradientUnits="userSpaceOnUse" />
    <linearGradient
       inkscape:collect="always"
       xlink:href="#linearGradient35255"
       id="linearGradient34591"
       x1="276.14484"
       y1="81.746895"
       x2="280.49347"
       y2="43.537434"
       gradientUnits="userSpaceOnUse" />
    <linearGradient
       inkscape:collect="always"
       xlink:href="#linearGradient35701"
       id="linearGradient35437"
       x1="257.50616"
       y1="133.49673"
       x2="264.17343"
       y2="78.85321"
       gradientUnits="userSpaceOnUse" />
  </defs>
  <g
     inkscape:label="Layer 1"
     inkscape:groupmode="layer"
     id="layer1"
     transform="translate(-6.7299574,-10.305904)">
    <text
       xml:space="preserve"
       style="font-style:normal;font-variant:normal;font-weight:normal;font-stretch:normal;font-size:63.5px;line-height:1.25;font-family:Jaldi;-inkscape-font-specification:'Jaldi, Normal';font-variant-ligatures:normal;font-variant-caps:normal;font-variant-numeric:normal;font-variant-east-asian:normal;text-align:center;letter-spacing:0px;word-spacing:0px;writing-mode:lr-tb;text-anchor:middle;fill:url(#linearGradient35437);fill-opacity:1;stroke:none;stroke-width:10.365;stroke-linecap:butt;stroke-miterlimit:4;stroke-dasharray:none;stroke-opacity:1;paint-order:stroke markers fill"
       x="256.98697"
       y="121.66152"
       id="text37359"><tspan
         sodipodi:role="line"
         style="font-style:normal;font-variant:normal;font-weight:normal;font-stretch:normal;font-size:63.5px;font-family:Jaldi;-inkscape-font-specification:'Jaldi, Normal';font-variant-ligatures:normal;font-variant-caps:normal;font-variant-numeric:normal;font-variant-east-asian:normal;fill:url(#linearGradient35437);fill-opacity:1;stroke:none;stroke-width:10.365;stroke-linecap:butt;stroke-miterlimit:4;stroke-dasharray:none;stroke-opacity:1;paint-order:stroke markers fill"
         x="256.98697"
         y="121.66152"
         id="tspan37357">LSE</tspan></text>
    <path
       id="rect52364"
       style="fill:#ca1200;fill-rule:evenodd;stroke-width:6.50835;paint-order:stroke fill markers;stop-color:#000000"
       d="M 557.79492 298.46289 L 557.79492 307.1582 L 781.30859 307.1582 L 781.30859 298.46289 L 557.79492 298.46289 z M 852.58789 298.46289 L 852.58789 307.1582 L 875.69922 307.1582 C 876.05713 304.21431 876.58931 301.30408 877.3457 298.46289 L 852.58789 298.46289 z M 986.26758 298.46289 L 986.26758 307.1582 L 995.66602 307.1582 C 996.46251 305.64549 997.20776 304.1094 997.84766 302.53516 C 998.40782 301.19946 998.93725 299.85692 999.41016 298.46289 L 986.26758 298.46289 z M 1115.9473 298.46289 C 1115.608 301.16259 1114.8959 304.01129 1113.3672 307.1582 L 1242.1406 307.1582 L 1242.1406 298.46289 L 1115.9473 298.46289 z "
       transform="matrix(0.26458333,0,0,0.26458333,6.7299574,10.305904)" />
    <path
       style="fill:url(#radialGradient6937);fill-opacity:1;stroke-width:0.264583"
       d="m 66.637568,145.7427 c -6.94843,-4.78573 2.02611,-12.33005 5.53404,-16.50853 1.40849,-3.12913 10.836658,-12.02937 8.97727,-3.96994 -2.96454,6.25088 -5.05674,13.28134 -9.46258,18.64444 -1.38719,1.19595 -3.21,1.88895 -5.04873,1.83403 z m -41.20638,-11.73089 c -2.83446,-1.94221 -7.6556,-0.84837 -6.12295,-5.14262 -5.652,-6.49227 6.09627,-11.691 11.36827,-12.81408 10.26863,-2.05835 19.48025,-7.35021 29.39279,-10.54004 4.371,5.70882 -7.40716,9.00084 -10.26229,13.12123 -7.97962,4.00743 -13.27116,11.47004 -21.06465,15.37302 -1.04178,0.44346 -2.27026,0.47896 -3.31117,0.002 z m 82.244762,-18.53864 c -7.998395,-2.05026 -16.658034,-7.18533 -19.109974,-15.510072 -1.22378,-7.64691 1.60661,-17.3242 9.197609,-20.65087 3.223955,-1.07778 10.706005,-5.13871 8.192445,-0.1153 5.07312,1.34843 -2.8885,10.63103 3.0049,11.14695 1.77521,4.90271 7.62982,8.68976 12.764,8.15169 7.67329,-2.59568 8.64143,-12.2697 7.79365,-19.17477 -0.4146,-7.54146 -4.42021,-15.38082 -11.90065,-17.947832 -9.27549,-4.70931 -20.004675,-0.69118 -28.727664,3.392792 -7.35428,4.0588 -12.858128,10.90129 -16.697578,18.17331 -7.1154,3.99487 -2.2891,-7.21823 0.24192,-9.60252 5.6415,-8.70275 12.812908,-16.900632 22.656617,-20.858232 6.129475,-3.7412 13.478235,-3.42088 20.279255,-1.96752 14.49393,2.80313 27.12967,16.019272 26.61956,31.235582 0.77788,13.73731 -7.30494,28.600942 -20.93853,32.786212 -4.27824,1.4394 -8.94141,1.8926 -13.37556,0.94058 z m -48.517482,-54.372694 c -10.96887,-3.01223 -21.75565,-6.94261 -32.97321,-8.89081 -5.44022,-0.19973 -15.05183,-0.9812 -14.4262,-8.465446 0.45754,-5.47725 3.79515,-11.57013 10.14897,-8.24808 7.71528,0.28092 14.19295,8.64425 21.83359,11.60883 5.4072,4.084556 14.4154,6.734136 17.05992,12.740566 -0.45522,0.561201 -1.034604,0.891971 -1.64307,1.25494 z m 27.947068,-21.849446 c -15.005858,-0.95635 -29.435628,-8.59677 -38.686298,-20.4465 -1.33116,-8.446917 10.23622,0.863784 13.8127,2.365178 13.14606,7.620522 29.240798,9.601802 44.084882,7.032472 8.09064,-1.900119 15.82943,-5.64881 22.26202,-10.891284 6.65898,0.82307 -2.56129,8.775939 -5.54582,10.794554 -10.33842,7.46814 -23.082215,11.93361 -35.927484,11.14558 z"
       id="path1967"
       sodipodi:nodetypes="ccccccccccccccccccccccccccccccccccccccccccc" />
    <path
       style="fill:#ff7b00;fill-opacity:1;stroke-width:0.264583"
       d="m 66.637568,145.7427 c -6.94843,-4.78573 2.02611,-12.33005 5.53404,-16.50853 1.40849,-3.12913 10.836658,-12.02937 8.97727,-3.96994 -2.96454,6.25088 -5.05674,13.28134 -9.46258,18.64444 -1.38719,1.19595 -3.21,1.88895 -5.04873,1.83403 z m -41.20638,-11.73089 c -2.83446,-1.94221 -7.6556,-0.84837 -6.12295,-5.14262 -5.652,-6.49227 6.09627,-11.691 11.36827,-12.81408 10.26863,-2.05835 19.48025,-7.35021 29.39279,-10.54004 4.371,5.70882 -7.40716,9.00084 -10.26229,13.12123 -7.97962,4.00743 -13.27116,11.47004 -21.06465,15.37302 -1.04178,0.44346 -2.27026,0.47896 -3.31117,0.002 z m 33.72728,-72.911334 c -10.96887,-3.01223 -21.75565,-6.94261 -32.97321,-8.89081 -5.44022,-0.19973 -15.05183,-0.9812 -14.4262,-8.465446 0.45754,-5.47725 3.79515,-11.57013 10.14897,-8.24808 7.71528,0.28092 14.19295,8.64425 21.83359,11.60883 5.4072,4.084556 14.4154,6.734136 17.05992,12.740566 -0.45522,0.561201 -1.034604,0.891971 -1.64307,1.25494 z"
       id="path3995"
       sodipodi:nodetypes="cccccccccccccccccccc" />
    <path
       style="fill:url(#linearGradient26141);fill-opacity:1;stroke-width:0.264583"
       d="m 87.105536,39.25103 c -15.005858,-0.95635 -29.435628,-8.59677 -38.686298,-20.4465 -1.33116,-8.446917 10.23622,0.863784 13.8127,2.365178 13.14606,7.620522 29.240798,9.601802 44.084882,7.032472 8.09064,-1.900119 15.82943,-5.64881 22.26202,-10.891284 6.65898,0.82307 -2.56129,8.775939 -5.54582,10.794554 -10.33842,7.46814 -23.082215,11.93361 -35.927484,11.14558 z"
       id="path4917"
       sodipodi:nodetypes="ccccccc" />
    <text
       xml:space="preserve"
       style="font-size:14.1111px;line-height:1.25;font-family:'Source Sans Pro';-inkscape-font-specification:'Source Sans Pro, Normal';text-align:center;letter-spacing:0px;word-spacing:0px;writing-mode:lr-tb;text-anchor:middle;fill:#ff7b00;fill-opacity:1;stroke-width:0.264583"
       x="166.87018"
       y="80.711998"
       id="text22052"><tspan
         sodipodi:role="line"
         style="font-style:normal;font-variant:normal;font-weight:normal;font-stretch:normal;font-size:63.5px;font-family:Jaldi;-inkscape-font-specification:'Jaldi, Normal';font-variant-ligatures:normal;font-variant-caps:normal;font-variant-numeric:normal;font-variant-east-asian:normal;fill:#ff7b00;fill-opacity:1"
         x="166.87018"
         y="80.711998"
         id="tspan22050">S</tspan></text>
    <g
       id="path37402"
       style="font-size:63.5px;font-family:Jaldi;-inkscape-font-specification:'Jaldi, Normal';text-align:center;letter-spacing:0px;word-spacing:0px;text-anchor:middle;fill:#ffffff;fill-opacity:1;stroke:none;stroke-width:10.365;stroke-opacity:1;paint-order:stroke markers fill" />
    <g
       id="path37404"
       style="font-size:63.5px;font-family:Jaldi;-inkscape-font-specification:'Jaldi, Normal';text-align:center;letter-spacing:0px;word-spacing:0px;text-anchor:middle;fill:#ffffff;fill-opacity:1;stroke:none;stroke-width:10.365;stroke-opacity:1;paint-order:stroke markers fill" />
    <text
       xml:space="preserve"
       style="font-size:14.1111px;line-height:1.25;font-family:'Source Sans Pro';-inkscape-font-specification:'Source Sans Pro, Normal';text-align:center;letter-spacing:-0.529167px;word-spacing:0px;writing-mode:lr-tb;text-anchor:middle;fill:url(#linearGradient34591);fill-opacity:1;stroke-width:0.264583"
       x="245.6955"
       y="76.180672"
       id="text6048"><tspan
         sodipodi:role="line"
         style="font-style:normal;font-variant:normal;font-weight:normal;font-stretch:normal;font-size:49.3889px;font-family:Jaldi;-inkscape-font-specification:'Jaldi, Normal';font-variant-ligatures:normal;font-variant-caps:normal;font-variant-numeric:normal;font-variant-east-asian:normal;fill:url(#linearGradient34591);fill-opacity:1"
         x="245.43091"
         y="76.180672"
         id="tspan18978"
         dy="0"
         dx="0">ig<tspan
   style="letter-spacing:-0.79375px;fill:url(#linearGradient34591);fill-opacity:1"
   id="tspan6816">n</tspan><tspan
   id="tspan10919"
   style="letter-spacing:-1.05833px;fill:url(#linearGradient34591);fill-opacity:1">a</tspan><tspan
   id="tspan10917"
   style="letter-spacing:0.264583px;fill:url(#linearGradient34591);fill-opacity:1">r</tspan><tspan
   style="letter-spacing:-0.79375px;fill:url(#linearGradient34591);fill-opacity:1"
   id="tspan13279">i</tspan>o</tspan></text>
  </g>
</svg>
